# xmcd
#
# Track frame offsets:
#	150
#	17027
#	32797
#	49725
#	69280
#	82705
#	98220
#	112922
#	131797
#	144152
#	157957
#	173695
#	200867
#
# Disc length: 2880 seconds
#
# Revision: 2
# Processed by: cddbd v1.5.2PL0 Copyright (c) Steve Scherf et al.
# Submitted via: audiograbber 1.83.01
#
DISCID=a10b3e0d
DTITLE=Antone's Women - Antone's Women: Bringing You The Best in Blues
DYEAR=1992
DGENRE=Blues
TTITLE0=Angela Strehli, Lou Ann Barton, Marcia Ball - Something's Got A Hold On
TTITLE0=Me
TTITLE1=Sarah Brown, Angela Strehli, Lou Ann Barton, Marcia Ball - Hurtback
TTITLE2=Angela Strehli - Bigtown Playboy
TTITLE3=Angela Strehli - Neighbor, Neighbor
TTITLE4=Lou Ann Barton - Down South In New Orleans
TTITLE5=Lou Ann Barton - You'll Lose a Good Thing
TTITLE6=Barbara Lynn - I'm A Good Woman
TTITLE7=Sue Foley - Queen Bee
TTITLE8=Sue Foley with Angela Strehli - But I Forgive You
TTITLE9=Sue Foley - Cuban Getaway
TTITLE10=Toni Price - Twelve Bar Blues
TTITLE11=Toni Price - Richest One
TTITLE12=Lavelle White - Wrappin' Up Our Love
EXTD=
EXTT0=
EXTT1=
EXTT2=
EXTT3=
EXTT4=
EXTT5=
EXTT6=
EXTT7=
EXTT8=
EXTT9=
EXTT10=
EXTT11=
EXTT12=
PLAYORDER=
